Coordinates
version=1
nRows=5
nColumns=42
inDegrees=yes

Units are S.I. units (second, meters, Newtons, ...)
If the header above contains a line with 'inDegrees', this indicates whether rotational values are in degrees (yes) or radians (no).

endheader
time	pelvis_tilt	pelvis_list	pelvis_rotation	pelvis_tx	pelvis_ty	pelvis_tz	hip_flexion_r	hip_adduction_r	hip_rotation_r	knee_angle_r	knee_adduction_r	knee_angle_r_beta	ankle_angle_r	subtalar_angle_r	mtp_angle_r	hip_flexion_l	hip_adduction_l	hip_rotation_l	knee_angle_l	knee_adduction_l	knee_angle_l_beta	ankle_angle_l	subtalar_angle_l	mtp_angle_l	lumbar_extension	lumbar_bending	lumbar_rotation	arm_flex_r	arm_add_r	arm_rot_r	elbow_flex_r	pro_sup_r	wrist_flex_r	wrist_dev_r	arm_flex_l	arm_add_l	arm_rot_l	elbow_flex_l	pro_sup_l	wrist_flex_l	wrist_dev_l
      3.14000000	      8.28838156	      5.75012173	      1.02569549	      0.26003221	      1.00467549	      0.33432572	     -2.53775837	     -4.07323795	    -37.47371002	     17.92295667	     -8.06141549	      0.31281461	     16.78111659	     34.23827416	     -7.50089672	     20.95037225	     -2.63170129	     -4.44114621	     32.19659261	      0.24870802	      0.56193655	     -1.93060200	     -8.56324372	     -7.50089672	    -28.96983443	     -7.59420243	      1.77750194	     21.92573008	    -21.42202270	     32.01418171	     39.79337147	     90.00000001	      0.00000000	      0.00000000	     -0.53797065	    -16.87756460	      3.45816952	     41.76861061	     90.00000001	      0.00000000	      0.00000000
      3.15000000	      8.53585371	      5.58909409	      0.87057416	      0.26646182	      1.00392982	      0.33424631	     -3.07991784	     -3.84908334	    -37.33099887	     18.09896447	     -8.26188170	      0.31588652	     17.25013871	     34.02190995	     -7.50088261	     21.28674980	     -2.68516467	     -4.91371683	     30.70461668	      0.25147797	      0.53589666	     -1.92978231	     -7.75306934	     -7.50088261	    -29.12526018	     -7.46720943	      2.13266254	     22.75372993	    -21.63586322	     32.00218301	     39.80327953	     90.00000001	      0.00000000	      0.00000000	     -1.08596431	    -16.62926637	      3.59955224	     41.54607611	     90.00000001	      0.00000000	      0.00000000
      3.16000000	      8.87540257	      5.46630352	      0.75555917	      0.27310894	      1.00324638	      0.33403526	     -3.76841499	     -3.71866209	    -37.21689268	     18.31885717	     -8.34114125	      0.31972437	     17.94763365	     33.89858193	     -7.50086458	     21.45309362	     -2.64496981	     -5.47490703	     29.21036581	      0.15830917	      0.50981706	     -1.88375545	     -6.50762163	     -7.50086458	    -29.35969040	     -7.36746321	      2.40214093	     23.59337045	    -21.78943117	     32.06069360	     39.70376662	     90.00000001	      0.00000000	      0.00000000	     -1.64446029	    -16.37402391	      3.78999888	     41.30056158	     90.00000001	      0.00000000	      0.00000000
      3.17000000	      8.96835609	      5.19861674	      0.70000041	      0.27966689	      1.00209167	      0.33374291	     -4.15877198	     -3.39113455	    -37.05930638	     18.51362142	     -8.47710451	      0.32312365	     18.09575924	     33.56393546	     -7.50085800	     22.03205409	     -2.76346346	     -5.96460985	     28.14843956	      0.13832971	      0.49128295	     -1.79221613	     -6.21588530	     -7.50085800	    -29.32265662	     -7.10240307	      2.70978827	     24.30611695	    -22.03828337	     31.89830976	     39.84752833	     90.00000001	      0.00000000	      0.00000000	     -2.26259054	    -16.08438973	      3.89645136	     41.16444875	     90.00000001	      0.00000000	      0.00000000
      3.18000000	      9.53344775	      5.11255305	      0.48335053	      0.28676896	      1.00142800	      0.33362503	     -5.05137020	     -3.31547745	    -37.05988922	     18.81811016	     -8.72037489	      0.32843798	     19.13620053	     33.83430654	     -7.50078132	     21.91283159	     -2.75012508	     -7.88213644	     26.84928202	     -0.51399455	      0.46860837	     -0.79461311	     -1.61370628	     -7.50078132	    -29.73659143	     -7.08495563	      2.94002695	     25.23323836	    -22.06410876	     32.39438293	     39.46527929	     90.00000001	      0.00000000	      0.00000000	     -2.92874862	    -15.94460245	      4.35226323	     41.11554530	     90.00000001	      0.00000000	      0.00000000
